<?xml version="1.0" ?><svg height="512" preserveAspectRatio="xMidYMid" viewBox="0 0 512 512" width="512" xmlns="http://www.w3.org/2000/svg" xmlns:xlink="http://www.w3.org/1999/xlink"><defs><style>
      .cls-1 {
        fill: #fff;
      }

      .cls-2 {
        fill: #1e3b59;
      }

      .cls-2, .cls-3 {
        fill-rule: evenodd;
      }

      .cls-3 {
        fill: #000;
        opacity: 0.1;
      }
    </style></defs><circle class="cls-1" cx="256" cy="256" r="256"/><path class="cls-2" d="M365.537,327.016 C391.864,326.915 400.280,314.652 401.750,315.706 C403.220,316.760 410.528,329.212 406.277,334.933 C402.025,340.654 375.276,348.503 345.167,343.981 C315.059,339.459 304.129,318.391 305.559,285.169 C306.990,251.948 326.706,230.882 359.879,230.882 C379.312,230.882 405.145,237.265 405.145,261.418 C405.145,272.130 405.145,275.935 405.145,282.907 C405.145,289.879 399.889,294.217 389.302,294.217 C385.231,294.217 340.641,294.217 340.641,294.217 C340.641,294.217 339.210,327.117 365.537,327.016 ZM340.641,278.383 L370.064,278.383 C370.064,278.383 374.420,278.735 374.590,274.990 C374.979,266.445 372.124,248.478 357.616,248.977 C337.857,249.658 340.641,278.383 340.641,278.383 ZM172.023,342.850 C165.163,342.850 123.362,342.850 123.362,342.850 C114.977,329.136 126.743,327.956 134.679,328.147 C134.228,317.672 144.277,248.717 130.152,248.977 C116.027,249.238 116.833,233.479 122.231,233.143 C127.628,232.808 148.505,230.882 155.049,230.882 C161.592,230.882 159.090,235.764 159.575,242.191 C200.792,217.380 222.033,231.955 228.607,242.191 C261.861,213.571 294.243,235.003 294.243,248.977 C294.243,262.952 296.506,313.479 296.506,320.230 C296.506,326.981 296.394,329.278 303.296,329.278 C310.198,329.278 306.650,342.850 301.033,342.850 C295.415,342.850 275.395,342.850 271.610,342.850 C267.824,342.850 263.688,339.384 263.688,333.802 C263.688,328.220 262.556,292.146 262.556,268.205 C262.556,244.263 230.870,249.479 230.870,268.205 C230.870,286.930 230.870,328.147 230.870,328.147 C230.870,328.147 232.687,328.147 241.055,328.147 C249.422,328.147 246.476,342.850 239.923,342.850 C231.895,342.850 219.770,343.981 198.052,343.981 C184.719,343.981 183.568,329.278 198.052,329.278 C198.052,323.183 198.052,289.098 198.052,269.335 C198.052,245.763 167.497,243.384 167.497,270.466 C167.497,270.466 167.610,309.670 167.497,328.147 C183.392,327.577 178.884,342.850 172.023,342.850 ZM256.000,512.000 C211.799,512.000 170.215,500.798 133.931,481.078 C184.664,469.201 246.713,434.461 246.713,434.461 C337.345,434.312 465.326,383.666 463.992,291.956 C462.657,200.245 356.580,136.585 253.503,137.009 C150.426,137.434 60.929,202.813 59.990,284.039 C59.050,365.265 160.707,418.627 160.707,418.627 C159.203,431.742 133.206,454.146 114.019,469.037 C45.281,423.134 0.000,344.859 0.000,256.000 C0.000,114.615 114.615,0.000 256.000,0.000 C397.385,0.000 512.000,114.615 512.000,256.000 C512.000,397.385 397.385,512.000 256.000,512.000 Z"/><path class="cls-3" d="M436.999,75.012 C536.959,174.972 536.959,337.039 436.999,436.999 C337.039,536.959 174.972,536.959 75.012,436.999 "/></svg>